<svg xmlns="http://www.w3.org/2000/svg" width="494.97" height="781.013" viewBox="1649.515 3432.449 494.97 781.013"><path d="M1925.822 3628.65c2.436-11.232 3.688-24.975 2.018-38.021-3.061-24.418-13.569-42.138-26.442-56.51-3.062 9.419-2.993 22.046-2.436 33.627.279 5.651.835 11.232 1.531 16.674a458.713 458.713 0 0 0 2.296 15.906c1.74 10.255 4.106 20.232 6.333 30.069 2.227 9.976 4.384 20.022 6.68 29.72 4.105-9.698 7.585-20.023 10.02-31.465m8.49 269.361c2.226-.767 4.384-1.465 6.332-2.651-8.28-36.417-16.283-73.113-24.425-109.67-20.527 2.093-32.01 13.325-38.759 29.232-2.227 5.302-4.175 11.232-4.036 18.696.696-.488 1.113-1.255 1.74-1.953 1.809-1.953 4.314-3.558 7.028-4.535 3.827-1.465 9.185-1.325 12.873.35 6.124 2.79 12.178 10.324 9.534 20.091-1.044 3.977-3.201 6.907-6.194 9.21-2.922 2.162-7.028 3.836-11.83 3.348-4.453-.488-7.862-2.372-10.576-4.744-5.358-4.744-8.28-12.697-9.394-21.418-.557-4.814-.278-9.278.556-13.953 1.462-8.58 4.524-16.325 8.49-22.324 7.654-11.442 19.554-19.325 35.002-22.604 1.044-.21 2.157-.279 3.131-.767-4.453-20.79-9.046-42.068-13.43-63.137-.905 1.046-2.018 2.72-2.992 4.186-13.36 19.882-25.747 40.672-36.463 62.788l-2.088 4.116a18.08 18.08 0 0 0-.974 2.023c-1.949 4.186-3.897 7.953-5.637 12.348-2.296 5.721-4.592 11.79-6.123 18.07-.766 3.278-1.113 6.906-1.67 10.464-1.392 9.488-.209 19.395 1.948 26.929.974 3.14 2.644 7.186 2.853 7.674 6.75 15.488 18.301 27.139 32.984 34.394 7.863 3.837 17.536 6.837 28.6 7.325a61.704 61.704 0 0 0 23.52-3.488m40.777-41.44c1.253-4.256 2.227-9.07 2.227-14.232 0-5.163-.487-10.255-1.531-15-1.81-8.93-5.845-15.975-10.855-22.045-5.01-6-10.856-11.371-18.023-15.069-.696-.349-1.531-.767-2.575-1.186 6.333 29.51 13.013 58.742 18.997 88.67 4.871-5.93 9.255-12.696 11.76-21.138m4.454 195.131c.07-.767-.14-1.674-.279-2.72-1.322-10.047-6.123-16.674-13.5-20.163-2.713-1.255-6.471-2.302-10.159-1.953-6.82.628-10.647 3.837-14.195 7.674-2.923 3.21-5.428 7.186-7.377 11.65-.278.629-.765 1.466-.835 1.954 0 .558.348 1.465.557 2.302 2.088 8.512 6.68 14.163 13.291 17.93 2.435 1.395 5.15 2.72 8.211 3.21.766.139 2.853.069 3.618-.07 2.436-.42 5.01-1.884 6.89-3.21 4.87-3.418 8.698-8.232 11.968-13.395.487-.837 1.67-2.302 1.81-3.209m103.891-59.788c-1.391-19.394-4.314-37.743-7.654-55.184-1.114-5.72-2.505-11.301-4.036-16.813-.766-2.79-1.322-5.65-2.018-8.441-6.263-25.046-12.665-50.44-18.301-75.974-.627-2.79-1.462-5.511-2.157-8.302-.696-2.79-1.462-5.65-2.088-8.441-2.575-11.232-5.845-22.395-8.072-33.906-2.227-11.511-4.314-23.79-4.94-36.905-.627-13.186.139-26.79 3.618-37.603-18.232-13.953-37.09-27.278-56.086-40.464l-.07.21c4.593 20.301 9.185 40.184 13.709 60.276 1.46 6.628 3.34 13.116 5.08 19.674 6.958 26.231 13.499 52.463 19.622 79.182 6.124 26.65 12.039 53.789 16.77 82.043 2.297 13.953 4.733 28.394 6.124 43.254 1.392 14.79 2.714 31.115.905 46.603 16.144.628 29.156-3.349 39.594-9.209m.766 20.371c0-3.558-.557-7.046-.557-10.674l-1.461.489c-10.925 4.883-24.147 8.023-40.151 7.325-.835 2.79-1.6 5.581-2.436 8.302-2.574 8.232-5.497 16.046-9.116 23.232-14.056 28.045-34.793 49.811-66.872 59.578l-1.948.489c-1.113.418-2.227 1.186-3.27 1.744-7.794 3.976-16.144 7.116-25.747 9.279-11.064 2.441-25.677 2.511-34.932-1.605.556 4.535 1.113 9.558.904 14.58-.208 5.093-.696 9.977-1.461 14.302-1.67 8.93-4.384 16.883-7.515 24.07 14.195-.42 27.556-1.815 39.942-4.326 6.263-1.256 12.247-2.721 18.092-4.186 5.915-1.465 11.412-3.349 16.91-5.442 5.288-2.023 10.507-4.325 15.517-6.767 14.961-7.534 29.713-15.069 42.587-24.348 8.42-6.139 16.561-13.185 23.59-20.999 7.097-7.813 14.125-15.697 19.9-24.836 5.777-9 10.648-19.255 13.988-30.696 2.505-8.581 4.036-18.418 4.036-29.51m9.185-226.038 1.113.698c-2.574-21.139-12.803-35.998-24.076-48.626-8.838-9.976-19.832-17.999-30.479-26.231 3.201 18.487 10.368 33.138 20.11 44.858 4.941 5.93 10.856 10.535 16.701 15.628 5.428 4.744 11.203 9.139 16.63 13.673m37.925 119.507c.07-10.395-1.67-20.162-4.314-28.743-2.644-8.442-6.332-15.906-10.299-23.162-1.044-1.883-1.74-3.767-2.853-5.511-3.2-5.233-6.958-9.628-10.855-14.232-10.23-11.86-22.616-22.255-34.654-32.301v.21c5.706 20.65 11.134 41.16 16.144 62.16 1.67 6.976 3.41 14.022 4.94 21.138 4.593 21.557 9.256 43.533 11.482 66.695.766 7.953 1.81 16.046 1.531 24.696l.487-.209 1.531-1.605c5.01-4.953 8.838-10.534 12.386-16.882 4.036-7.116 7.516-15 10.09-23.372 2.575-8.51 4.384-18.627 4.384-28.882m14.126-17.441c.279 8.72-.626 17.232-2.087 24.975-.487 2.582-.975 5.093-1.6 7.465-2.784 9.698-5.707 18.837-9.465 27.139-5.775 12.697-12.316 23.999-21.293 33.556-2.157 2.303-4.453 4.535-7.028 6.698-.696.558-2.366 1.744-2.435 2.372-.279 1.674-.348 3.488-.627 5.162-.626 5.093-1.113 10.395-1.809 15.488-4.384 33.766-14.474 62.09-29.087 85.74-1.461 2.372-2.992 4.605-4.593 6.907-1.6 2.233-3.061 4.605-4.731 6.767-9.673 13.116-21.99 23.092-35.559 32.51-9.742 5.93-19.066 10.884-29.435 16.465-2.644 1.395-5.497 3-7.863 4.395-6.82 3.977-13.639 9.837-16.144 18.209-2.087 6.976.14 14.022 2.645 18.697 2.783 5.092 6.262 9 10.229 12.906l-1.81-.837 2.018 1.535c-7.932-3.768-14.89-9.14-18.788-17.162-1.948-4.116-3.27-9.419-2.435-15.07.696-5.092 2.853-9.208 5.15-12.766-6.055 1.534-12.457 2.65-19.207 3.558-13.43 1.813-28.808 2.023-43.143.837-3.48-.28-6.889-.698-10.299-1.117-2.644-.348-5.288-.279-7.932-.627-.975-.14-1.67-.21-2.645-.14-6.262 12.279-15.656 21.488-27.347 28.534a59.006 59.006 0 0 1-9.394 4.674c-3.34 1.256-7.167 2.093-11.064 2.86-7.863 1.465-16.492 2.024-25.26.838-7.932-1.117-15.17-3.419-21.293-6.628-7.724-4.116-14.265-8.86-19.554-15.348-1.043-1.256-2.226-2.442-3.27-3.628-6.402-7.535-11.064-16.883-13.778-28.115l-.487-.837c-2.853-11.65-3.132-27.836-1.322-41.092 1.878-13.673 5.15-26.022 8.907-37.393 6.61-20.023 15.378-38.58 25.19-55.812.974-1.744 2.087-3.558 3.2-5.442.418-.627 1.044-1.465 1.044-1.813l-.974-1.814c-10.368-17.79-14.96-41.72-14.334-69.835l-1.044 1.047c-4.802 5.93-10.508 11.162-16.005 16.604-5.845 5.72-12.177 11.023-18.301 16.534-6.193 5.511-12.873 10.395-18.44 16.464-5.567 6.07-10.995 12.14-15.448 19.395-2.227 3.628-4.175 7.325-5.289 12.209-.557 2.372-.905 4.953-1.183 7.534-.278 2.582-.417 5.302-.07 8.023.627 5.093 2.645 8.79 5.498 11.93 5.358 5.86 13.778 10.325 24.912 9.627 5.288-.348 9.463-2.162 12.943-4.395 7.097-4.534 12.386-10.743 14.404-20.37l-1.044.627c-2.435 1.744-6.332 2.93-10.438 1.884-5.01-1.326-9.881-6.558-8.907-13.535.905-6.279 5.428-10.534 11.83-10.813 4.732-.28 8.28 2.162 10.229 4.813 2.157 2.93 3.131 6.837 2.783 12.28-.626 8.86-4.244 16.533-8.28 21.975-4.106 5.581-9.882 10.744-16.562 13.743-1.809.838-3.688 1.466-5.636 1.954-6.402 1.535-13.848.977-19.832-.837-7.794-2.372-13.43-6.698-17.744-12.558-4.245-5.72-6.68-13.534-6.472-23.58.209-9.21 2.853-17.093 6.054-24.139 3.2-6.976 7.098-13.255 11.412-18.906 8.837-11.58 19.066-21.348 29.783-30.696 2.714-2.372 5.567-4.535 8.28-6.907 8.003-6.907 15.936-14.302 22.338-23.022 4.383-5.86 8.35-12.07 11.064-19.255 1.322-3.558 2.366-7.674 3.41-11.72.486-1.815 1.043-3.977 1.391-6.14.348-1.953.418-4.604 1.392-6.14.487-.697 1.252-1.046 2.087-1.464l1.044.767c.905 4.744.278 9.628-.07 14.58-1.46 19.884-.208 41.232 3.897 57.626.279 1.047.627 2.093.835 3.14l.21 1.535c.486 2.441 1.46 5.092 2.226 7.464 2.575 7.884 5.288 15.488 10.438 20.79 3.618-6.418 6.332-13.743 8.837-21.348 3.758-11.232 7.167-23.092 9.881-35.51.905-4.186 1.81-8.371 2.157-12.906.696-9.349.627-19.186-1.252-27.767-1.81-8.371-4.94-15.208-9.255-20.999-1.113-1.465-2.227-2.86-3.549-4.046-3.897-3.349-8.907-6.628-13.847-8.72-6.82-2.93-16.77-4.605-25.19-1.745-7.446 2.582-13.222 6.837-17.745 12.418 5.776 1.186 9.464 4.675 11.9 9.349 2.504 4.814 2.435 12.697-.349 17.162-2.853 4.604-7.028 7.465-13.986 7.255-6.472-.209-9.951-4.325-13.013-8.162-3.2 6.418-7.306 12.279-11.83 17.58-1.46 1.745-2.922 3.628-4.523 5.233-6.471 6.488-13.082 12.906-20.667 18.418-11.203 8.232-23.241 15.557-36.81 21.906-3.619 1.674-7.655 3.628-11.83 5.302-.974.349-1.6.418-1.81-.21-.208-.837.905-1.325 1.81-1.813 2.435-1.396 4.593-3 6.82-4.326 9.115-5.58 17.813-12 26.024-18.557 11.204-8.86 21.433-18.139 30.41-28.952 2.226-2.651 4.522-5.372 6.54-8.302 2.018-2.93 4.245-5.721 6.124-8.72 2.783-4.605 5.358-9.42 7.794-14.512.765-1.604 1.809-3.14 2.783-4.604 5.497-8.86 12.873-17.023 22.059-22.465 3.062-1.813 6.402-3.558 10.298-4.465 6.402-1.534 13.848-1.255 20.11-.07 1.045.21 4.037 1.047 4.593 1.257 7.655 2.79 14.057 6.767 19.763 11.44 2.783 2.303 5.288 4.675 7.306 7.536 4.036 5.72 7.098 12.557 9.116 20.65 1.879 7.813 1.81 18.278 1.322 27.557-.696 13.883-3.41 26.51-6.332 38.161-3.967 15.906-9.742 29.79-15.727 43.603.975 1.046 2.436 1.535 3.828 2.162 3.896 1.814 8.976 3 14.682 3 7.585 0 14.057-2.023 19.345-4.186-1.392-3.767-4.801-11.65-4.87-12.069 0-.488 3.826-25.882 5.427-37.603 28.878 2.372 52.398-5.93 67.777-19.185l1.53-1.186c-2.574 20.65-5.845 40.673-15.308 54.416 10.229-1.604 18.231-5.93 25.607-11.023 6.193-4.255 11.83-9.488 16.91-15.208.765-.837 1.67-1.675 1.878-2.651.279-1.884.279-3.977.279-6 .208-14.58-1.392-27.766-4.593-39.068l-.07-.07c-6.193 2.372-12.456 4.256-19.832 5.093-7.584.837-16.004.767-23.31-.558-14.057-2.442-25.47-7.953-34.933-14.79-9.533-6.907-17.396-15.907-23.242-26.51-2.922-5.233-5.497-11.303-7.097-17.86-1.67-6.698-2.714-14.372-2.157-22.534 1.113-15.07 5.218-27.906 10.09-39.766 4.87-11.86 10.507-22.674 16.283-33.348 1.46-2.72 25.955-42.626 36.323-60.346.418-.697 1.044-1.535 1.114-1.953.07-.558-.348-1.605-.557-2.582-2.783-12.836-5.219-26.022-7.724-38.858-1.392-6.907-2.575-13.953-3.897-21-1.252-7.046-2.644-14.092-3.618-21.138-2.157-14.79-1.462-32.65 1.461-45.766 3.062-13.534 8.142-24.836 15.935-33.696-2.783-3.209-5.984-6-9.115-8.72-3.132-2.791-6.472-5.372-9.951-7.814-13.778-9.837-29.157-18.069-46.275-24.976-7.446-3-15.1-5.511-23.242-7.953-1.391-.418-3.13-.558-3.41-1.604-.486-1.814-7.306-41.231-7.863-46.254l1.044-.768c1.74.14 3.55.768 5.289 1.186 11.899 2.93 23.59 6.837 33.888 11.233 12.526 5.302 23.311 11.232 33.54 18.069 5.15 3.488 9.951 7.325 14.613 11.232 14.057 11.58 25.817 25.882 35.698 41.789 6.61 10.604 11.969 22.254 16.283 35.37 1.044 3.279 2.018 6.558 2.853 10.116.766 3.628 1.114 7.395 1.461 11.441.627 7.744.836 16.255.07 24.906-1.392 15.837-4.523 30.069-8.559 43.115-3.48 11.302-8.072 21.906-12.873 32.3-.627 1.326-1.88 3.07-2.088 4.326v.488c.278 2.024.905 3.977 1.322 6 3.132 13.813 6.124 27.697 9.255 41.65 2.644 11.999 5.219 23.65 7.933 35.789.626 2.93 1.322 5.86 2.018 8.86.278 1.186.348 2.442.835 3.349 6.263 1.674 12.177 4.046 16.84 7.395 2.296 1.674 4.592 3.348 6.68 5.092 10.716 8.79 18.37 21.209 21.572 37.534 1.322 6.976 1.74 14.58 1.322 21.906-.418 7.255-2.227 13.604-4.245 19.324-3.827 10.605-10.09 19.674-17.675 26.65l-1.392 1.466c-.208.907 0 2.302 0 3.418 0 16.883-1.6 31.952-4.94 45.766-3.48 14.37-8.768 27.487-16.005 38.021-3.618 5.232-7.933 10.465-12.734 14.232-5.01 3.907-10.508 7.186-16.77 10.255-8.907 4.326-18.789 7.884-30.966 9.558-1.948.28-4.036.349-6.124.488-2.226.14-4.592-.139-6.54-.278-.697-.07-1.392.767-2.158 1.255-9.255 6.349-19.206 11.93-32.148 14.65-7.098 1.466-15.031 1.466-22.06-.348-6.47-1.744-11.69-4.814-15.934-9-13.848 25.185-27.696 50.719-32.706 85.043-1.252 8.302-1.461 18.837-.208 27.418.417 2.79.835 5.65 1.878 7.883l.14.558.347.21c.418.697.627 1.813.975 2.65 3.2 8.372 7.654 15 13.5 20.86 6.47 6.488 14.473 11.65 24.354 14.79 5.08 1.605 10.717 2.72 16.7 2.93 11.97.419 22.477-3 30.55-7.813 3.06-1.884 5.775-3.977 8.419-6.28.835-.697 1.74-1.464 2.296-2.371-14.682-3.558-27.904-8.511-38.968-15.837-5.358-3.558-10.507-7.674-13.986-13.395-1.6-2.65-3.48-5.86-4.176-9.557-.556-3.07-.556-6.558-.07-9.488.766-4.395 3.689-8.163 6.681-10.395 2.575-1.953 6.124-3.419 10.16-3.558 8.628-.349 14.404 4.325 17.187 10.116 1.67 3.488 2.088 7.674 1.183 11.51-.835 3.49-2.783 6.42-5.08 8.582-4.383 4.116-13.36 6.837-20.597 3.07 6.054 6.906 14.056 11.301 22.755 15.069 6.54 2.86 13.22 5.72 21.293 7.116 2.644.418 5.428.837 8.28 1.255 3.34-4.325 5.915-9.418 7.725-15.138 1.878-5.79 3.548-11.93 3.757-19.116a57.629 57.629 0 0 0-.765-10.604c-1.531-9.558-5.01-18-9.394-24.906-8.699-13.744-22.824-23.232-43.422-25.045-6.68-.559-14.056-.21-21.015.907l.14-.21c8.698-4.395 19.414-7.813 31.87-8.023 12.804-.209 22.615 4.256 30.687 9.279-1.461-14.302 3.201-25.394 10.23-32.65 2.435-2.511 5.01-4.814 8.14-6.418-2.643 6.837-5.149 14.302-5.427 23.371-.278 9.279 1.948 16.674 6.332 22.185 2.018 2.581 5.359 4.325 8.49 5.93a53.024 53.024 0 0 0 10.577 3.837c7.724 1.814 18.301 1.744 24.842-1.395l.14-.14c-3.55-5.79-5.707-13.185-6.124-21.975-.627-13.744 2.714-25.534 6.61-35.301 1.392-3.419 2.993-6.28 4.94-9.14 3.828-5.58 8.42-10.534 14.405-13.603 3.201-1.675 6.89-2.86 11.273-2.791 3.967.07 7.863 1.046 11.064 2.79 11.621 6.28 19.345 19.325 17.675 37.883-.765 8.51-3.27 15.348-6.332 21.696 5.01-2.093 9.394-4.953 13.5-8.162 12.177-9.348 21.71-21.976 29.712-35.58.21-.977.975-8.93.905-12.279-1.53-.767-3.131-.976-4.662-1.534-10.647-3.419-19.693-8.86-27.487-15.279-2.226-1.814-4.175-3.907-6.193-6.07-3.897-4.185-6.889-9.417-8.28-16.185a17.256 17.256 0 0 1 1.043-10.464c2.505-5.86 7.168-9.21 14.405-10.116 3.34-.419 7.376 1.256 9.533 2.511 4.593 2.791 8.837 8.79 7.724 16.465-.974 6.767-5.15 11.441-10.925 13.534-3.131 1.047-6.75 1.117-10.716.419l.835.767c9.533 7.325 20.597 13.814 34.167 17.162-2.645-28.673-9.812-54.277-15.657-80.02-9.742-43.114-20.041-86.089-29.853-129.343-4.87-21.487-10.09-43.184-14.96-64.672-.975-4.325-1.81-8.65-2.993-12.906-4.732-17.023-8.141-33.836-10.646-53.021-.627-4.674-1.253-9.488-1.6-14.372-.349-5.023-.766-10.115-.627-15.138.348-9.767 2.087-19.186 4.453-27.418 2.088-7.186 4.732-13.813 8.699-19.115.556-.698 1.043-1.535 1.809-2.024-2.644 13.535-.07 27.07 4.314 36.697 5.637 12.418 13.987 21.906 24.216 29.65 1.044.767 4.662 3.557 6.124 4.674 12.247 9.139 24.842 18.418 37.02 27.487 2.087 1.535 4.105 3.14 6.262 4.535 2.157 1.465 4.245 2.93 6.193 4.534 11.62 9.698 22.337 20.58 30.966 33.557 5.497 8.302 10.646 18.069 13.708 29.37 2.992 10.814 4.175 26.372.766 38.092 3.061 3.419 6.402 6.767 9.533 10.256 1.461 1.604 2.783 3.279 4.175 5.023 6.75 8.371 12.943 17.092 18.58 27.138 8.559 15.348 15.308 33.905 16.004 56.3" stroke-linejoin="round" stroke-linecap="round" stroke-width="2" stroke="#ba8748" fill="transparent" data-name="Path 480"/></svg>