<svg xmlns="http://www.w3.org/2000/svg" width="41.624" height="39.721" viewBox="3.805 3.806 41.624 39.721"><path d="M3.806 12.168c0-1.154.946-2.09 2.064-2.09h37.495c1.14 0 2.065.93 2.065 2.09v29.268c0 1.154-.947 2.091-2.065 2.091H5.87a2.064 2.064 0 0 1-1.464-.615 2.083 2.083 0 0 1-.6-1.476V12.168Zm4.162 2.09v25.088h33.3V14.259h-33.3ZM28.78 33.075c3.448 0 6.244-2.808 6.244-6.272 0-3.464-2.796-6.272-6.244-6.272s-6.244 2.808-6.244 6.272c0 3.464 2.796 6.272 6.244 6.272Zm0 4.181c-5.747 0-10.406-4.68-10.406-10.453S23.033 16.35 28.78 16.35c5.747 0 10.406 4.68 10.406 10.453S34.527 37.255 28.78 37.255ZM7.968 3.805h12.487v4.182H7.968V3.806Z" fill="#4c5153" fill-rule="evenodd" data-name="Path 486"/></svg>