<svg xmlns="http://www.w3.org/2000/svg" width="52.071" height="33.92" viewBox="3.025 12.101 52.071 33.92"><path d="M38.528 12.1c1.308 0 2.367.95 2.367 2.12v8.905l12.339-7.738a1.3 1.3 0 0 1 1.226-.072c.391.182.637.545.636.941v25.61c.001.395-.245.758-.636.941a1.3 1.3 0 0 1-1.226-.072l-12.339-7.738V43.9c0 1.17-1.06 2.12-2.367 2.12H5.392c-1.307 0-2.367-.95-2.367-2.12V14.22c0-1.171 1.06-2.12 2.367-2.12h33.136Zm-2.367 4.24H7.76v25.44H36.16V16.34Zm-17.988 5.998c.18 0 .357.045.51.132l10.307 5.876a.83.83 0 0 1 .437.715.83.83 0 0 1-.437.714l-10.308 5.88a1.042 1.042 0 0 1-.967.026c-.303-.15-.49-.437-.489-.748V23.188c0-.468.426-.848.947-.848Zm32.19.024-9.468 5.936v1.522l9.468 5.936V22.362Z" fill="#4c5153" fill-rule="evenodd" data-name="Path 484"/></svg>